<svg width="847" height="520" xmlns="http://www.w3.org/2000/svg" version="1.1"><g transform="translate(0, 10)"><g class="links" fill="none" stroke-opacity="0.4"><path d="M5,457.75033715441685C142.83333333333334,457.75033715441685,142.83333333333334,416.9032366824002,280.6666666666667,416.9032366824002" stroke-width="4.499325691166555" style="stroke: rgb(191, 105, 105);"></path><path d="M5,441.5673465947406C142.83333333333334,441.5673465947406,142.83333333333334,400.72024612272384,280.6666666666667,400.72024612272384" stroke-width="7.866655428186109" style="stroke: rgb(191, 123, 105);"></path><path d="M5,365.3632838840192C142.83333333333334,365.3632838840192,142.83333333333334,381.5568105192175,280.6666666666667,381.5568105192175" stroke-width="10.460215778826703" style="stroke: rgb(191, 142, 105);"></path><path d="M5,379.48457518543523C142.83333333333334,379.48457518543523,142.83333333333334,468.04408293998614,280.6666666666667,468.04408293998614" stroke-width="1.0460215778826703" style="stroke: rgb(191, 142, 105);"></path><path d="M5,376.0527646662174C142.83333333333334,376.0527646662174,142.83333333333334,444.6122724207683,280.6666666666667,444.6122724207683" stroke-width="2.6938637896156443" style="stroke: rgb(191, 142, 105);"></path><path d="M5,381.168240053945C142.83333333333334,381.168240053945,142.83333333333334,489.7277478084959,280.6666666666667,489.7277478084959" stroke-width="0.5158462575859744" style="stroke: rgb(191, 142, 105);"></path><path d="M5,354.06481793661527C142.83333333333334,354.06481793661527,142.83333333333334,339.72648347943317,280.6666666666667,339.72648347943317" stroke-width="12.13671611598112" style="stroke: rgb(191, 142, 105);"></path><path d="M5,378.18063047875955C142.83333333333334,378.18063047875955,142.83333333333334,456.74013823331046,280.6666666666667,456.74013823331046" stroke-width="1.5618678354686448" style="stroke: rgb(191, 142, 105);"></path><path d="M5,380.4589514497643C142.83333333333334,380.4589514497643,142.83333333333334,479.0184592043152,280.6666666666667,479.0184592043152" stroke-width="0.9027309507754552" style="stroke: rgb(191, 142, 105);"></path><path d="M5,372.64961227242105C142.83333333333334,372.64961227242105,142.83333333333334,431.20912002697185,280.6666666666667,431.20912002697185" stroke-width="4.112440997977074" style="stroke: rgb(191, 142, 105);"></path><path d="M5,381.43332771409337C142.83333333333334,381.43332771409337,142.83333333333334,499.9928354686443,280.6666666666667,499.9928354686443" stroke-width="0.014329062710721511" style="stroke: rgb(191, 142, 105);"></path><path d="M5,399.271325016858C142.83333333333334,399.271325016858,142.83333333333334,315.8272926500333,280.6666666666667,315.8272926500333" stroke-width="15.661665542818612" style="stroke: rgb(191, 160, 105);"></path><path d="M5,307.53287255563055C142.83333333333334,307.53287255563055,142.83333333333334,267.5328725556303,280.6666666666667,267.5328725556303" stroke-width="60.92717464598787" style="stroke: rgb(191, 179, 105);"></path><path d="M5,422.3680883344573C142.83333333333334,422.3680883344573,142.83333333333334,361.060772083614,280.6666666666667,361.060772083614" stroke-width="10.53186109238031" style="stroke: rgb(185, 191, 105);"></path><path d="M5,158.16292987188118C142.83333333333334,158.16292987188118,142.83333333333334,118.16292987188123,280.6666666666667,118.16292987188123" stroke-width="68.36395819285234" style="stroke: rgb(166, 191, 105);"></path><path d="M5,76.99047538772749C142.83333333333334,76.99047538772749,142.83333333333334,36.99047538772789,280.6666666666667,36.99047538772789" stroke-width="73.98095077545516" style="stroke: rgb(148, 191, 105);"></path><path d="M5,234.70709710047183C142.83333333333334,234.70709710047183,142.83333333333334,194.70709710047205,280.6666666666667,194.70709710047205" stroke-width="64.72437626432907" style="stroke: rgb(130, 191, 105);"></path><path d="M285.6666666666667,417.33310856372185C423.5,417.33310856372185,423.5,412.89194200944,561.3333333333334,412.89194200944" stroke-width="3.639581928523264" style="stroke: rgb(111, 191, 105);"></path><path d="M285.6666666666667,415.0834457181386C423.5,415.0834457181386,423.5,251.77764666217115,561.3333333333334,251.77764666217115" stroke-width="0.8597437626432907" style="stroke: rgb(111, 191, 105);"></path><path d="M285.6666666666667,400.7345751854345C423.5,400.7345751854345,423.5,407.153152393796,561.3333333333334,407.153152393796" stroke-width="7.837997302764666" style="stroke: rgb(105, 191, 117);"></path><path d="M285.6666666666667,396.80124747134147C423.5,396.80124747134147,423.5,251.3334457181388,561.3333333333334,251.3334457181388" stroke-width="0.028658125421443022" style="stroke: rgb(105, 191, 117);"></path><path d="M285.6666666666667,381.5568105192175C423.5,381.5568105192175,423.5,398.0040458530004,561.3333333333334,398.0040458530004" stroke-width="10.460215778826703" style="stroke: rgb(105, 191, 136);"></path><path d="M285.6666666666667,468.04408293998614C423.5,468.04408293998614,423.5,423.04408293998625,561.3333333333334,423.04408293998625" stroke-width="1.0460215778826703" style="stroke: rgb(105, 191, 154);"></path><path d="M285.6666666666667,444.6122724207683C423.5,444.6122724207683,423.5,419.6122724207684,561.3333333333334,419.6122724207684" stroke-width="2.6938637896156443" style="stroke: rgb(105, 191, 172);"></path><path d="M285.6666666666667,315.8272926500333C423.5,315.8272926500333,423.5,362.2745279838162,561.3333333333334,362.2745279838162" stroke-width="15.661665542818612" style="stroke: rgb(105, 191, 191);"></path><path d="M285.6666666666667,489.7277478084959C423.5,489.7277478084959,423.5,424.727747808496,561.3333333333334,424.727747808496" stroke-width="0.5158462575859744" style="stroke: rgb(105, 172, 191);"></path><path d="M285.6666666666667,339.72648347943317C423.5,339.72648347943317,423.5,376.1737188132161,561.3333333333334,376.1737188132161" stroke-width="12.13671611598112" style="stroke: rgb(105, 154, 191);"></path><path d="M285.6666666666667,456.74013823331046C423.5,456.74013823331046,423.5,421.7401382333106,561.3333333333334,421.7401382333106" stroke-width="1.5618678354686448" style="stroke: rgb(105, 136, 191);"></path><path d="M285.6666666666667,479.0184592043152C423.5,479.0184592043152,423.5,424.0184592043153,561.3333333333334,424.0184592043153" stroke-width="0.9027309507754552" style="stroke: rgb(105, 117, 191);"></path><path d="M285.6666666666667,431.4885367498309C423.5,431.4885367498309,423.5,416.4885367498311,561.3333333333334,416.4885367498311" stroke-width="3.553607552258935" style="stroke: rgb(111, 105, 191);"></path><path d="M285.6666666666667,429.4323162508424C423.5,429.4323162508424,423.5,252.48693526635188,561.3333333333334,252.48693526635188" stroke-width="0.558833445718139" style="stroke: rgb(111, 105, 191);"></path><path d="M285.6666666666667,256.6499494268373C423.5,256.6499494268373,423.5,231.73845246122713,561.3333333333334,231.73845246122713" stroke-width="39.16132838840189" style="stroke: rgb(130, 105, 191);"></path><path d="M285.6666666666667,287.1135367498312C423.5,287.1135367498312,423.5,343.5607720836139,561.3333333333334,343.5607720836139" stroke-width="21.765846257585977" style="stroke: rgb(130, 105, 191);"></path><path d="M285.6666666666667,361.060772083614C423.5,361.060772083614,423.5,387.5080074173968,561.3333333333334,387.5080074173968" stroke-width="10.53186109238031" style="stroke: rgb(148, 105, 191);"></path><path d="M285.6666666666667,146.19774106540785C423.5,146.19774106540785,423.5,307.3154079568439,561.3333333333334,307.3154079568439" stroke-width="12.294335805799056" style="stroke: rgb(166, 105, 191);"></path><path d="M285.6666666666667,112.01576196898169C423.5,112.01576196898169,423.5,138.61387390424804,561.3333333333334,138.61387390424804" stroke-width="56.06962238705327" style="stroke: rgb(166, 105, 191);"></path><path d="M285.6666666666667,17.78953135536107C423.5,17.78953135536107,423.5,92.78953135536065,561.3333333333334,92.78953135536065" stroke-width="35.579062710721516" style="stroke: rgb(185, 105, 191);"></path><path d="M285.6666666666667,54.78000674308865C423.5,54.78000674308865,423.5,281.9672960215775,561.3333333333334,281.9672960215775" stroke-width="38.40188806473365" style="stroke: rgb(185, 105, 191);"></path><path d="M285.6666666666667,217.4616486850978C423.5,217.4616486850978,423.5,323.0702124072822,561.3333333333334,323.0702124072822" stroke-width="19.215273095077546" style="stroke: rgb(191, 105, 179);"></path><path d="M285.6666666666667,185.0994605529333C423.5,185.0994605529333,423.5,189.4032366824004,561.3333333333334,189.4032366824004" stroke-width="45.50910316925152" style="stroke: rgb(191, 105, 179);"></path><path d="M285.6666666666667,499.9928354686443C423.5,499.9928354686443,423.5,424.9928354686444,561.3333333333334,424.9928354686444" stroke-width="0.014329062710721511" style="stroke: rgb(191, 105, 160);"></path><path d="M566.3333333333334,327.44057653405224C704.1666666666667,327.44057653405224,704.1666666666667,316.88174308833436,842,316.88174308833436" stroke-width="129.34844908968307" style="stroke: rgb(191, 105, 142);"></path><path d="M566.3333333333334,408.5574005394467C704.1666666666667,408.5574005394467,704.1666666666667,408.5574005394472,842,408.5574005394472" stroke-width="32.88519892110587" style="stroke: rgb(191, 105, 142);"></path><path d="M566.3333333333334,163.60375927174636C704.1666666666667,163.60375927174636,704.1666666666667,163.60375927174638,842,163.60375927174638" stroke-width="177.20751854349294" style="stroke: rgb(191, 105, 123);"></path><path d="M566.3333333333334,252.4869352663519C704.1666666666667,252.4869352663519,704.1666666666667,391.8353843560352,842,391.8353843560352" stroke-width="0.558833445718139" style="stroke: rgb(191, 105, 123);"></path></g><g class="nodes" font-family="Arial, Helvetica" font-size="10"><g><rect x="280.6666666666667" y="414.6535738368169" height="4.499325691166405" width="5" fill="#000"></rect><text x="274.6666666666667" y="416.9032366824001" dy="0.35em" text-anchor="end">Apartments 4-6 Units</text></g><g><rect x="280.6666666666667" y="396.78691840863075" height="7.866655428186164" width="5" fill="#000"></rect><text x="274.6666666666667" y="400.72024612272384" dy="0.35em" text-anchor="end">Apartments 7 Units above</text></g><g><rect x="280.6666666666667" y="376.3267026298041" height="10.460215778826637" width="5" fill="#000"></rect><text x="274.6666666666667" y="381.55681051921744" dy="0.35em" text-anchor="end">Commercial</text></g><g><rect x="280.6666666666667" y="467.5210721510448" height="1.0460215778826978" width="5" fill="#000"></rect><text x="274.6666666666667" y="468.04408293998614" dy="0.35em" text-anchor="end">Commercial Condo Unit</text></g><g><rect x="280.6666666666667" y="443.2653405259605" height="2.693863789615648" width="5" fill="#000"></rect><text x="274.6666666666667" y="444.6122724207683" dy="0.35em" text-anchor="end">Commercial Land</text></g><g><rect x="280.6666666666667" y="307.996459878624" height="15.661665542818582" width="5" fill="#000"></rect><text x="274.6666666666667" y="315.8272926500333" dy="0.35em" text-anchor="end">Condominium Master</text></g><g><rect x="280.6666666666667" y="489.4698246797029" height="0.515846257585963" width="5" fill="#000"></rect><text x="274.6666666666667" y="489.7277478084959" dy="0.35em" text-anchor="end">Condominium Parking</text></g><g><rect x="280.6666666666667" y="333.6581254214426" height="12.136716115981244" width="5" fill="#000"></rect><text x="274.6666666666667" y="339.7264834794332" dy="0.35em" text-anchor="end">Exempt</text></g><g><rect x="280.6666666666667" y="455.95920431557613" height="1.5618678354686608" width="5" fill="#000"></rect><text x="274.6666666666667" y="456.74013823331046" dy="0.35em" text-anchor="end">Exempt 121A</text></g><g><rect x="280.6666666666667" y="478.5670937289275" height="0.9027309507754353" width="5" fill="#000"></rect><text x="274.6666666666667" y="479.0184592043152" dy="0.35em" text-anchor="end">Industrial</text></g><g><rect x="280.6666666666667" y="429.1528995279833" height="4.11244099797716" width="5" fill="#000"></rect><text x="274.6666666666667" y="431.2091200269719" dy="0.35em" text-anchor="end">Mixed Use Res/Comm</text></g><g><rect x="280.6666666666667" y="237.06928523263636" height="60.92717464598769" width="5" fill="#000"></rect><text x="274.6666666666667" y="267.5328725556302" dy="0.35em" text-anchor="end">Residential Condo Unit</text></g><g><rect x="280.6666666666667" y="355.79484153742385" height="10.531861092380268" width="5" fill="#000"></rect><text x="274.6666666666667" y="361.060772083614" dy="0.35em" text-anchor="end">Residential Land</text></g><g><rect x="280.6666666666667" y="83.98095077545506" height="68.36395819285246" width="5" fill="#000"></rect><text x="274.6666666666667" y="118.16292987188129" dy="0.35em" text-anchor="end">Residential Single Family</text></g><g><rect x="280.6666666666667" y="3.126388037344441e-13" height="73.98095077545474" width="5" fill="#000"></rect><text x="274.6666666666667" y="36.990475387727685" dy="0.35em" text-anchor="end">Residential Three Family</text></g><g><rect x="280.6666666666667" y="162.34490896830752" height="64.72437626432884" width="5" fill="#000"></rect><text x="274.6666666666667" y="194.70709710047194" dy="0.35em" text-anchor="end">Residential Two Family</text></g><g><rect x="280.6666666666667" y="499.9856709372889" height="0.014329062710771723" width="5" fill="#000"></rect><text x="274.6666666666667" y="499.9928354686443" dy="0.35em" text-anchor="end">XX</text></g><g><rect x="561.3333333333334" y="262.7663519892107" height="162.2336480107894" width="5" fill="#000"></rect><text x="555.3333333333334" y="343.8831759946054" dy="0.35em" text-anchor="end">N</text></g><g><rect x="561.3333333333334" y="74.99999999999989" height="177.76635198921082" width="5" fill="#000"></rect><text x="555.3333333333334" y="163.8831759946053" dy="0.35em" text-anchor="end">Y</text></g><g><rect x="842" y="391.5559676331761" height="33.44403236682399" width="5" fill="#000"></rect><text x="836" y="408.2779838165881" dy="0.35em" text-anchor="end">NR</text></g><g><rect x="842" y="74.99999999999991" height="306.5559676331762" width="5" fill="#000"></rect><text x="836" y="228.277983816588" dy="0.35em" text-anchor="end">R</text></g><g><rect x="0" y="347.9964598786247" height="33.44403236682399" width="5" fill="#000"></rect><text x="11" y="364.7184760620367" dy="0.35em" text-anchor="start">0</text></g><g><rect x="0" y="39.999999999999915" height="73.98095077545509" width="5" fill="#000"></rect><text x="11" y="76.99047538772746" dy="0.35em" text-anchor="start">15489</text></g><g><rect x="0" y="455.5006743088336" height="4.4993256911665185" width="5" fill="#000"></rect><text x="11" y="457.75033715441685" dy="0.35em" text-anchor="start">2149</text></g><g><rect x="0" y="277.0692852326366" height="60.92717464598809" width="5" fill="#000"></rect><text x="11" y="307.53287255563066" dy="0.35em" text-anchor="start">4252</text></g><g><rect x="0" y="123.980950775455" height="68.3639581928523" width="5" fill="#000"></rect><text x="11" y="158.16292987188115" dy="0.35em" text-anchor="start">4817</text></g><g><rect x="0" y="437.63401888064755" height="7.86665542818605" width="5" fill="#000"></rect><text x="11" y="441.56734659474057" dy="0.35em" text-anchor="start">5716</text></g><g><rect x="0" y="417.10215778826716" height="10.531861092380382" width="5" fill="#000"></rect><text x="11" y="422.36808833445735" dy="0.35em" text-anchor="start">75</text></g><g><rect x="0" y="391.4404922454487" height="15.661665542818469" width="5" fill="#000"></rect><text x="11" y="399.27132501685793" dy="0.35em" text-anchor="start">7501</text></g><g><rect x="0" y="202.3449089683073" height="64.7243762643293" width="5" fill="#000"></rect><text x="11" y="234.70709710047194" dy="0.35em" text-anchor="start">9034</text></g></g></g></svg>